<svg viewBox="0 0 330 200" xmlns="http://www.w3.org/2000/svg"><g><g><g><g><g><line x1="51.5625" y1="177" x2="46.5625" y2="177" style="visibility: inherit;" fill="rgb(0, 0, 0)" stroke="rgb(204, 204, 204)" stroke-width="1px"></line><line x1="51.5625" y1="154.875" x2="46.5625" y2="154.875" style="visibility: inherit;" fill="rgb(0, 0, 0)" stroke="rgb(204, 204, 204)" stroke-width="1px"></line><line x1="51.5625" y1="132.75" x2="46.5625" y2="132.75" style="visibility: inherit;" fill="rgb(0, 0, 0)" stroke="rgb(204, 204, 204)" stroke-width="1px"></line><line x1="51.5625" y1="110.62499999999999" x2="46.5625" y2="110.62499999999999" style="visibility: inherit;" fill="rgb(0, 0, 0)" stroke="rgb(204, 204, 204)" stroke-width="1px"></line><line x1="51.5625" y1="88.49999999999999" x2="46.5625" y2="88.49999999999999" style="visibility: inherit;" fill="rgb(0, 0, 0)" stroke="rgb(204, 204, 204)" stroke-width="1px"></line><line x1="51.5625" y1="66.375" x2="46.5625" y2="66.375" style="visibility: inherit;" fill="rgb(0, 0, 0)" stroke="rgb(204, 204, 204)" stroke-width="1px"></line><line x1="51.5625" y1="44.25" x2="46.5625" y2="44.25" style="visibility: inherit;" fill="rgb(0, 0, 0)" stroke="rgb(204, 204, 204)" stroke-width="1px"></line><line x1="51.5625" y1="22.125" x2="46.5625" y2="22.125" style="visibility: inherit;" fill="rgb(0, 0, 0)" stroke="rgb(204, 204, 204)" stroke-width="1px"></line><line x1="51.5625" y1="0" x2="46.5625" y2="0" style="visibility: inherit;" fill="rgb(0, 0, 0)" stroke="rgb(204, 204, 204)" stroke-width="1px"></line></g><g transform="translate(41.5625, 0)"><text x="0" y="177" dx="0em" dy="0.3em" style="text-anchor: end; visibility: hidden; font-family: Roboto, sans-serif; font-size: 12px; font-weight: 200;" fill="rgb(255, 255, 255)" stroke="none" stroke-width="1px">-0.2</text><text x="0" y="154.875" dx="0em" dy="0.3em" style="text-anchor: end; visibility: inherit; font-family: Roboto, sans-serif; font-size: 12px; font-weight: 200;" fill="rgb(255, 255, 255)" stroke="none" stroke-width="1px">0</text><text x="0" y="132.75" dx="0em" dy="0.3em" style="text-anchor: end; visibility: hidden; font-family: Roboto, sans-serif; font-size: 12px; font-weight: 200;" fill="rgb(255, 255, 255)" stroke="none" stroke-width="1px">0.2</text><text x="0" y="110.62499999999999" dx="0em" dy="0.3em" style="text-anchor: end; visibility: inherit; font-family: Roboto, sans-serif; font-size: 12px; font-weight: 200;" fill="rgb(255, 255, 255)" stroke="none" stroke-width="1px">0.4</text><text x="0" y="88.49999999999999" dx="0em" dy="0.3em" style="text-anchor: end; visibility: hidden; font-family: Roboto, sans-serif; font-size: 12px; font-weight: 200;" fill="rgb(255, 255, 255)" stroke="none" stroke-width="1px">0.6</text><text x="0" y="66.375" dx="0em" dy="0.3em" style="text-anchor: end; visibility: inherit; font-family: Roboto, sans-serif; font-size: 12px; font-weight: 200;" fill="rgb(255, 255, 255)" stroke="none" stroke-width="1px">0.8</text><text x="0" y="44.25" dx="0em" dy="0.3em" style="text-anchor: end; visibility: hidden; font-family: Roboto, sans-serif; font-size: 12px; font-weight: 200;" fill="rgb(255, 255, 255)" stroke="none" stroke-width="1px">1</text><text x="0" y="22.125" dx="0em" dy="0.3em" style="text-anchor: end; visibility: inherit; font-family: Roboto, sans-serif; font-size: 12px; font-weight: 200;" fill="rgb(255, 255, 255)" stroke="none" stroke-width="1px">1.2</text><text x="0" y="0" dx="0em" dy="0.3em" style="text-anchor: end; visibility: hidden; font-family: Roboto, sans-serif; font-size: 12px; font-weight: 200;" fill="rgb(255, 255, 255)" stroke="none" stroke-width="1px">1.4</text></g><line x1="51.5625" y1="0" x2="51.5625" y2="177" fill="rgb(0, 0, 0)" stroke="rgb(204, 204, 204)" stroke-width="1px"></line></g></g><g transform="translate(51, 0)" clip-path="url(#clip_0)"><clipPath id="clip_0"><rect width="278" height="177"></rect></clipPath><g><g><g><line x1="0" y1="0" x2="0" y2="177" fill="rgb(0, 0, 0)" stroke="rgb(189, 189, 189)" stroke-width="1px" opacity="0.25"></line><line x1="39.776785714285715" y1="0" x2="39.776785714285715" y2="177" fill="rgb(0, 0, 0)" stroke="rgb(189, 189, 189)" stroke-width="1px" opacity="0.25"></line><line x1="79.55357142857143" y1="0" x2="79.55357142857143" y2="177" fill="rgb(0, 0, 0)" stroke="rgb(189, 189, 189)" stroke-width="1px" opacity="0.25"></line><line x1="119.33035714285714" y1="0" x2="119.33035714285714" y2="177" fill="rgb(0, 0, 0)" stroke="rgb(189, 189, 189)" stroke-width="1px" opacity="0.25"></line><line x1="159.10714285714286" y1="0" x2="159.10714285714286" y2="177" fill="rgb(0, 0, 0)" stroke="rgb(189, 189, 189)" stroke-width="1px" opacity="0.25"></line><line x1="198.88392857142858" y1="0" x2="198.88392857142858" y2="177" fill="rgb(0, 0, 0)" stroke="rgb(189, 189, 189)" stroke-width="1px" opacity="0.25"></line><line x1="238.66071428571428" y1="0" x2="238.66071428571428" y2="177" fill="rgb(0, 0, 0)" stroke="rgb(189, 189, 189)" stroke-width="1px" opacity="0.25"></line><line x1="278.4375" y1="0" x2="278.4375" y2="177" fill="rgb(0, 0, 0)" stroke="rgb(189, 189, 189)" stroke-width="1px" opacity="0.25"></line></g><g><line x1="0" y1="177" x2="278.4375" y2="177" fill="rgb(0, 0, 0)" stroke="rgb(189, 189, 189)" stroke-width="1px" opacity="0.25"></line><line x1="0" y1="154.875" x2="278.4375" y2="154.875" fill="rgb(0, 0, 0)" stroke="rgb(189, 189, 189)" stroke-width="1px" opacity="0.25"></line><line x1="0" y1="132.75" x2="278.4375" y2="132.75" fill="rgb(0, 0, 0)" stroke="rgb(189, 189, 189)" stroke-width="1px" opacity="0.25"></line><line x1="0" y1="110.62499999999999" x2="278.4375" y2="110.62499999999999" fill="rgb(0, 0, 0)" stroke="rgb(189, 189, 189)" stroke-width="1px" opacity="0.25"></line><line x1="0" y1="88.49999999999999" x2="278.4375" y2="88.49999999999999" fill="rgb(0, 0, 0)" stroke="rgb(189, 189, 189)" stroke-width="1px" opacity="0.25"></line><line x1="0" y1="66.375" x2="278.4375" y2="66.375" fill="rgb(0, 0, 0)" stroke="rgb(189, 189, 189)" stroke-width="1px" opacity="0.25"></line><line x1="0" y1="44.25" x2="278.4375" y2="44.25" fill="rgb(0, 0, 0)" stroke="rgb(189, 189, 189)" stroke-width="1px" opacity="0.25"></line><line x1="0" y1="22.125" x2="278.4375" y2="22.125" fill="rgb(0, 0, 0)" stroke="rgb(189, 189, 189)" stroke-width="1px" opacity="0.25"></line><line x1="0" y1="0" x2="278.4375" y2="0" fill="rgb(0, 0, 0)" stroke="rgb(189, 189, 189)" stroke-width="1px" opacity="0.25"></line></g></g></g><g><g><line x1="0" y1="154.875" x2="278.4375" y2="154.875" fill="rgb(0, 0, 0)" stroke="rgb(153, 153, 153)" stroke-width="1.5px"></line></g></g><g><g><line x1="39.776785714285715" y1="0" x2="39.776785714285715" y2="177" fill="rgb(0, 0, 0)" stroke="rgb(153, 153, 153)" stroke-width="1.5px"></line></g></g><g><g><g><g><g><path stroke="rgb(255, 112, 67)" stroke-width="2px" d="M41.33603571428572,-40.35587591288938L42.123616071428565,13.337929919589584L43.070303571428575,52.26640682619426L44.176098214285716,75.1456009230574L45.441,92.70348489695628L46.86500892857143,108.60227151985492L48.448125,114.26974138193086L50.19034821428572,110.71847918381826L52.09167857142857,112.78153514089502L54.15211607142857,125.49027147976594L56.37166071428572,124.02155013393296L58.7503125,129.44198512709985L61.28807142857143,131.4929397068413L63.9849375,130.18396156112985L66.84091071428571,131.7475594237168L69.85599107142856,135.2463077493656L73.03017857142858,136.82003965334977L76.36347321428572,140.73337576373902L79.855875,137.98523305735003L83.50738392857143,141.04785249719524L87.318,140.34734618266862L91.2877232142857,136.68455325599015L95.41655357142857,137.66733684418804L99.70449107142858,140.35782211136825L104.15153571428571,140.69500021547535L108.7576875,132.06118936506715L113.52294642857143,137.97861309771446L113.67409821428572,139.23159776774742L113.98435714285714,141.15083653121695L114.45372321428572,145.08125416843058L115.08219642857142,143.57354798338181L115.8697767857143,146.5338334835496L116.81646428571429,144.09371985046096L117.92225892857144,147.3017726150574L119.18716071428571,147.64899804243757L120.61116964285715,147.0539293301218L122.19428571428571,142.97167132991916L123.93650892857144,145.8889360798354L125.83783928571428,146.75236264515226L127.89827678571429,144.88826100711825L130.11782142857143,145.41864550940824L132.49647321428571,147.8139759412L135.03423214285715,147.4894601280391L137.7310982142857,146.6159823275716L140.58707142857145,144.50405962199363L143.60215178571428,146.07381832243615L146.77633928571427,146.9455280940178L150.10963392857144,146.7001795260115L153.6020357142857,144.50922075847663L157.25354464285715,146.51490527206937L161.06416071428572,142.83721043430944L165.03388392857144,146.18830694340787L169.1627142857143,147.98476643090387L173.45065178571429,146.26224425047562L177.89769642857144,145.55964788152224L182.5038482142857,147.27569977199863L187.26910714285714,147.0493324745794L187.42025892857143,144.09148832628716L187.73051785714284,145.60683063399551L188.1998839285714,147.61449179414961L188.82835714285713,149.23211979589422L189.6159375,148.1390942188147L190.562625,146.9838006031986L191.66841964285712,149.01653420522666L192.93332142857142,148.28427356202815L194.35733035714287,147.18091559764392L195.94044642857145,148.6845831506723L197.68266964285715,147.89649589781604L199.584,149.49656126407695L201.64443749999998,147.75644636605924L203.86398214285714,148.13941941141186L206.24263392857145,148.1032261362916L208.78039285714286,150.28491303550055L211.47725892857142,149.8394699303916L214.33323214285713,150.63709667832694L217.3483125,151.2263621580514L220.5225,152.14936964617334L223.85579464285715,147.7842313921074L227.34819642857144,149.6411670114283L230.99970535714286,148.71086011845972L234.81032142857143,147.8198468518651L238.78004464285712,147.90993487934895L242.908875,145.03646288052576L247.19681250000002,147.65447907448413L251.64385714285714,149.09344475224972L256.25000892857145,148.44447156380332L261.0152678571429,143.59353307688662" style="fill: none;" fill="none"></path></g></g></g></g><g opacity="0.2"><g><g><g><path stroke="rgb(255, 112, 67)" stroke-width="2px" d="M40.7075625,-73.05936214327816L41.33603571428572,11.41892458498478L42.123616071428565,83.4405628144741L43.070303571428575,106.11850463971496L44.176098214285716,107.8632145486772L45.441,118.303048286587L46.86500892857143,132.04989360831678L48.448125,122.68527361750603L50.19034821428572,105.42379557341337L52.09167857142857,115.86489201709628L54.15211607142857,144.51187975890934L56.37166071428572,121.82134549319744L58.7503125,137.56626609899104L61.28807142857143,134.5679250843823L63.9849375,128.221048258245L66.84091071428571,134.09255922026932L69.85599107142856,140.49389723874629L73.03017857142858,139.18049366399646L76.36347321428572,146.60316531267017L79.855875,133.86310942657292L83.50738392857143,145.6417211908847L87.318,139.2965950090438L91.2877232142857,131.19038989953697L95.41655357142857,139.14150803536177L99.70449107142858,144.3935431279242L104.15153571428571,141.20076685398817L108.7576875,119.1104810424149L113.52294642857143,146.85474542621523L113.67409821428572,141.11107435729355L113.98435714285714,144.02969429455698L114.45372321428572,150.9768801550381L115.08219642857142,141.3119888138026L115.8697767857143,150.97426160657778L116.81646428571429,140.43354946374893L117.92225892857144,152.11385171231814L119.18716071428571,148.16983618028462L120.61116964285715,146.16132626496255L122.19428571428571,136.84828434325755L123.93650892857144,150.2648331988603L125.83783928571428,148.04750249208882L127.89827678571429,142.09210855141282L130.11782142857143,146.21422226261348L132.49647321428571,151.40697158826515L135.03423214285715,147.00268640834838L137.7310982142857,145.30576562695205L140.58707142857145,141.3361755637452L143.60215178571428,148.42845637304708L146.77633928571427,148.2530927513726L150.10963392857144,146.3321566740051L153.6020357142857,141.2227826071903L157.25354464285715,149.5234320424497L161.06416071428572,137.32066817767918L165.03388392857144,151.2149517070502L169.1627142857143,150.6794556621462L173.45065178571429,143.6784609798342L177.89769642857144,144.5057533280924L182.5038482142857,149.8497776077129L187.26910714285714,146.70978152845055L187.42025892857143,139.65472210384905L187.73051785714284,147.87984409555793L188.1998839285714,150.6259835343808L188.82835714285713,151.65856179851107L189.6159375,146.4995558531955L190.562625,145.25086017977446L191.66841964285712,152.06563460826874L192.93332142857142,147.18588259723037L194.35733035714287,145.52587865106761L195.94044642857145,150.94008448021486L197.68266964285715,146.71436501853168L199.584,151.89665931346826L201.64443749999998,145.14627401903272L203.86398214285714,148.71387897944078L206.24263392857145,148.04893622361124L208.78039285714286,153.55744338431396L211.47725892857142,149.1713052727282L214.33323214285713,151.83353680022992L217.3483125,152.11026037763804L220.5225,153.53388087835629L223.85579464285715,141.23652401100844L227.34819642857144,152.4265704404097L230.99970535714286,147.31539977900684L234.81032142857143,146.48332695197314L238.78004464285712,148.04506692057475L242.908875,140.72625488229096L247.19681250000002,151.58150336542167L251.64385714285714,151.25189326889813L256.25000892857145,147.4710117811337L261.0152678571429,136.3171253465116" style="fill: none;" fill="none"></path></g></g></g></g></g></g><g transform="translate(51, 177)" clip-path="url(#clip_1)"><clipPath id="clip_1"><rect width="278" height="23"></rect></clipPath><g><g><line x1="0" y1="0" x2="0" y2="5" style="visibility: inherit;" fill="rgb(0, 0, 0)" stroke="rgb(204, 204, 204)" stroke-width="1px"></line><line x1="39.776785714285715" y1="0" x2="39.776785714285715" y2="5" style="visibility: inherit;" fill="rgb(0, 0, 0)" stroke="rgb(204, 204, 204)" stroke-width="1px"></line><line x1="79.55357142857143" y1="0" x2="79.55357142857143" y2="5" style="visibility: inherit;" fill="rgb(0, 0, 0)" stroke="rgb(204, 204, 204)" stroke-width="1px"></line><line x1="119.33035714285714" y1="0" x2="119.33035714285714" y2="5" style="visibility: inherit;" fill="rgb(0, 0, 0)" stroke="rgb(204, 204, 204)" stroke-width="1px"></line><line x1="159.10714285714286" y1="0" x2="159.10714285714286" y2="5" style="visibility: inherit;" fill="rgb(0, 0, 0)" stroke="rgb(204, 204, 204)" stroke-width="1px"></line><line x1="198.88392857142858" y1="0" x2="198.88392857142858" y2="5" style="visibility: inherit;" fill="rgb(0, 0, 0)" stroke="rgb(204, 204, 204)" stroke-width="1px"></line><line x1="238.66071428571428" y1="0" x2="238.66071428571428" y2="5" style="visibility: inherit;" fill="rgb(0, 0, 0)" stroke="rgb(204, 204, 204)" stroke-width="1px"></line><line x1="278.4375" y1="0" x2="278.4375" y2="5" style="visibility: inherit;" fill="rgb(0, 0, 0)" stroke="rgb(204, 204, 204)" stroke-width="1px"></line></g><g transform="translate(0, 8)"><text x="0" y="0" dx="0em" dy="0.95em" style="text-anchor: middle; visibility: hidden; font-family: Roboto, sans-serif; font-size: 12px; font-weight: 200;" fill="rgb(255, 255, 255)" stroke="none" stroke-width="1px">-5k</text><text x="39.776785714285715" y="0" dx="0em" dy="0.95em" style="text-anchor: middle; visibility: inherit; font-family: Roboto, sans-serif; font-size: 12px; font-weight: 200;" fill="rgb(255, 255, 255)" stroke="none" stroke-width="1px">0</text><text x="79.55357142857143" y="0" dx="0em" dy="0.95em" style="text-anchor: middle; visibility: inherit; font-family: Roboto, sans-serif; font-size: 12px; font-weight: 200;" fill="rgb(255, 255, 255)" stroke="none" stroke-width="1px">5k</text><text x="119.33035714285714" y="0" dx="0em" dy="0.95em" style="text-anchor: middle; visibility: inherit; font-family: Roboto, sans-serif; font-size: 12px; font-weight: 200;" fill="rgb(255, 255, 255)" stroke="none" stroke-width="1px">10k</text><text x="159.10714285714286" y="0" dx="0em" dy="0.95em" style="text-anchor: middle; visibility: inherit; font-family: Roboto, sans-serif; font-size: 12px; font-weight: 200;" fill="rgb(255, 255, 255)" stroke="none" stroke-width="1px">15k</text><text x="198.88392857142858" y="0" dx="0em" dy="0.95em" style="text-anchor: middle; visibility: inherit; font-family: Roboto, sans-serif; font-size: 12px; font-weight: 200;" fill="rgb(255, 255, 255)" stroke="none" stroke-width="1px">20k</text><text x="238.66071428571428" y="0" dx="0em" dy="0.95em" style="text-anchor: middle; visibility: inherit; font-family: Roboto, sans-serif; font-size: 12px; font-weight: 200;" fill="rgb(255, 255, 255)" stroke="none" stroke-width="1px">25k</text><text x="278.4375" y="0" dx="0em" dy="0.95em" style="text-anchor: middle; visibility: hidden; font-family: Roboto, sans-serif; font-size: 12px; font-weight: 200;" fill="rgb(255, 255, 255)" stroke="none" stroke-width="1px">30k</text></g><line x1="0" y1="0" x2="278.4375" y2="0" fill="rgb(0, 0, 0)" stroke="rgb(204, 204, 204)" stroke-width="1px"></line></g></g></g></g></svg>