<svg viewBox="0 0 330 200" xmlns="http://www.w3.org/2000/svg"><g><g><g><g><g><line x1="41.171875" y1="177" x2="36.171875" y2="177" style="visibility: inherit;" fill="rgb(0, 0, 0)" stroke="rgb(204, 204, 204)" stroke-width="1px"></line><line x1="41.171875" y1="159.3" x2="36.171875" y2="159.3" style="visibility: inherit;" fill="rgb(0, 0, 0)" stroke="rgb(204, 204, 204)" stroke-width="1px"></line><line x1="41.171875" y1="141.6" x2="36.171875" y2="141.6" style="visibility: inherit;" fill="rgb(0, 0, 0)" stroke="rgb(204, 204, 204)" stroke-width="1px"></line><line x1="41.171875" y1="123.89999999999999" x2="36.171875" y2="123.89999999999999" style="visibility: inherit;" fill="rgb(0, 0, 0)" stroke="rgb(204, 204, 204)" stroke-width="1px"></line><line x1="41.171875" y1="106.2" x2="36.171875" y2="106.2" style="visibility: inherit;" fill="rgb(0, 0, 0)" stroke="rgb(204, 204, 204)" stroke-width="1px"></line><line x1="41.171875" y1="88.5" x2="36.171875" y2="88.5" style="visibility: inherit;" fill="rgb(0, 0, 0)" stroke="rgb(204, 204, 204)" stroke-width="1px"></line><line x1="41.171875" y1="70.8" x2="36.171875" y2="70.8" style="visibility: inherit;" fill="rgb(0, 0, 0)" stroke="rgb(204, 204, 204)" stroke-width="1px"></line><line x1="41.171875" y1="53.10000000000001" x2="36.171875" y2="53.10000000000001" style="visibility: inherit;" fill="rgb(0, 0, 0)" stroke="rgb(204, 204, 204)" stroke-width="1px"></line><line x1="41.171875" y1="35.39999999999999" x2="36.171875" y2="35.39999999999999" style="visibility: inherit;" fill="rgb(0, 0, 0)" stroke="rgb(204, 204, 204)" stroke-width="1px"></line><line x1="41.171875" y1="17.699999999999996" x2="36.171875" y2="17.699999999999996" style="visibility: inherit;" fill="rgb(0, 0, 0)" stroke="rgb(204, 204, 204)" stroke-width="1px"></line><line x1="41.171875" y1="0" x2="36.171875" y2="0" style="visibility: inherit;" fill="rgb(0, 0, 0)" stroke="rgb(204, 204, 204)" stroke-width="1px"></line></g><g transform="translate(31.171875, 0)"><text x="0" y="177" dx="0em" dy="0.3em" style="text-anchor: end; visibility: hidden; font-family: Roboto, sans-serif; font-size: 12px; font-weight: 200;" fill="rgb(255, 255, 255)" stroke="none" stroke-width="1px">55</text><text x="0" y="159.3" dx="0em" dy="0.3em" style="text-anchor: end; visibility: inherit; font-family: Roboto, sans-serif; font-size: 12px; font-weight: 200;" fill="rgb(255, 255, 255)" stroke="none" stroke-width="1px">60</text><text x="0" y="141.6" dx="0em" dy="0.3em" style="text-anchor: end; visibility: hidden; font-family: Roboto, sans-serif; font-size: 12px; font-weight: 200;" fill="rgb(255, 255, 255)" stroke="none" stroke-width="1px">65</text><text x="0" y="123.89999999999999" dx="0em" dy="0.3em" style="text-anchor: end; visibility: inherit; font-family: Roboto, sans-serif; font-size: 12px; font-weight: 200;" fill="rgb(255, 255, 255)" stroke="none" stroke-width="1px">70</text><text x="0" y="106.2" dx="0em" dy="0.3em" style="text-anchor: end; visibility: hidden; font-family: Roboto, sans-serif; font-size: 12px; font-weight: 200;" fill="rgb(255, 255, 255)" stroke="none" stroke-width="1px">75</text><text x="0" y="88.5" dx="0em" dy="0.3em" style="text-anchor: end; visibility: inherit; font-family: Roboto, sans-serif; font-size: 12px; font-weight: 200;" fill="rgb(255, 255, 255)" stroke="none" stroke-width="1px">80</text><text x="0" y="70.8" dx="0em" dy="0.3em" style="text-anchor: end; visibility: hidden; font-family: Roboto, sans-serif; font-size: 12px; font-weight: 200;" fill="rgb(255, 255, 255)" stroke="none" stroke-width="1px">85</text><text x="0" y="53.10000000000001" dx="0em" dy="0.3em" style="text-anchor: end; visibility: inherit; font-family: Roboto, sans-serif; font-size: 12px; font-weight: 200;" fill="rgb(255, 255, 255)" stroke="none" stroke-width="1px">90</text><text x="0" y="35.39999999999999" dx="0em" dy="0.3em" style="text-anchor: end; visibility: hidden; font-family: Roboto, sans-serif; font-size: 12px; font-weight: 200;" fill="rgb(255, 255, 255)" stroke="none" stroke-width="1px">95</text><text x="0" y="17.699999999999996" dx="0em" dy="0.3em" style="text-anchor: end; visibility: inherit; font-family: Roboto, sans-serif; font-size: 12px; font-weight: 200;" fill="rgb(255, 255, 255)" stroke="none" stroke-width="1px">100</text><text x="0" y="0" dx="0em" dy="0.3em" style="text-anchor: end; visibility: hidden; font-family: Roboto, sans-serif; font-size: 12px; font-weight: 200;" fill="rgb(255, 255, 255)" stroke="none" stroke-width="1px">105</text></g><line x1="41.171875" y1="0" x2="41.171875" y2="177" fill="rgb(0, 0, 0)" stroke="rgb(204, 204, 204)" stroke-width="1px"></line></g></g><g transform="translate(41, 0)" clip-path="url(#clip_0)"><clipPath id="clip_0"><rect width="288" height="177"></rect></clipPath><g><g><g><line x1="0" y1="0" x2="0" y2="177" fill="rgb(0, 0, 0)" stroke="rgb(189, 189, 189)" stroke-width="1px" opacity="0.25"></line><line x1="41.261160714285715" y1="0" x2="41.261160714285715" y2="177" fill="rgb(0, 0, 0)" stroke="rgb(189, 189, 189)" stroke-width="1px" opacity="0.25"></line><line x1="82.52232142857143" y1="0" x2="82.52232142857143" y2="177" fill="rgb(0, 0, 0)" stroke="rgb(189, 189, 189)" stroke-width="1px" opacity="0.25"></line><line x1="123.78348214285714" y1="0" x2="123.78348214285714" y2="177" fill="rgb(0, 0, 0)" stroke="rgb(189, 189, 189)" stroke-width="1px" opacity="0.25"></line><line x1="165.04464285714286" y1="0" x2="165.04464285714286" y2="177" fill="rgb(0, 0, 0)" stroke="rgb(189, 189, 189)" stroke-width="1px" opacity="0.25"></line><line x1="206.30580357142858" y1="0" x2="206.30580357142858" y2="177" fill="rgb(0, 0, 0)" stroke="rgb(189, 189, 189)" stroke-width="1px" opacity="0.25"></line><line x1="247.56696428571428" y1="0" x2="247.56696428571428" y2="177" fill="rgb(0, 0, 0)" stroke="rgb(189, 189, 189)" stroke-width="1px" opacity="0.25"></line><line x1="288.828125" y1="0" x2="288.828125" y2="177" fill="rgb(0, 0, 0)" stroke="rgb(189, 189, 189)" stroke-width="1px" opacity="0.25"></line></g><g><line x1="0" y1="177" x2="288.828125" y2="177" fill="rgb(0, 0, 0)" stroke="rgb(189, 189, 189)" stroke-width="1px" opacity="0.25"></line><line x1="0" y1="159.3" x2="288.828125" y2="159.3" fill="rgb(0, 0, 0)" stroke="rgb(189, 189, 189)" stroke-width="1px" opacity="0.25"></line><line x1="0" y1="141.6" x2="288.828125" y2="141.6" fill="rgb(0, 0, 0)" stroke="rgb(189, 189, 189)" stroke-width="1px" opacity="0.25"></line><line x1="0" y1="123.89999999999999" x2="288.828125" y2="123.89999999999999" fill="rgb(0, 0, 0)" stroke="rgb(189, 189, 189)" stroke-width="1px" opacity="0.25"></line><line x1="0" y1="106.2" x2="288.828125" y2="106.2" fill="rgb(0, 0, 0)" stroke="rgb(189, 189, 189)" stroke-width="1px" opacity="0.25"></line><line x1="0" y1="88.5" x2="288.828125" y2="88.5" fill="rgb(0, 0, 0)" stroke="rgb(189, 189, 189)" stroke-width="1px" opacity="0.25"></line><line x1="0" y1="70.8" x2="288.828125" y2="70.8" fill="rgb(0, 0, 0)" stroke="rgb(189, 189, 189)" stroke-width="1px" opacity="0.25"></line><line x1="0" y1="53.10000000000001" x2="288.828125" y2="53.10000000000001" fill="rgb(0, 0, 0)" stroke="rgb(189, 189, 189)" stroke-width="1px" opacity="0.25"></line><line x1="0" y1="35.39999999999999" x2="288.828125" y2="35.39999999999999" fill="rgb(0, 0, 0)" stroke="rgb(189, 189, 189)" stroke-width="1px" opacity="0.25"></line><line x1="0" y1="17.699999999999996" x2="288.828125" y2="17.699999999999996" fill="rgb(0, 0, 0)" stroke="rgb(189, 189, 189)" stroke-width="1px" opacity="0.25"></line><line x1="0" y1="0" x2="288.828125" y2="0" fill="rgb(0, 0, 0)" stroke="rgb(189, 189, 189)" stroke-width="1px" opacity="0.25"></line></g></g></g><g><g><line x1="0" y1="371.7" x2="288.828125" y2="371.7" fill="rgb(0, 0, 0)" stroke="rgb(153, 153, 153)" stroke-width="1.5px"></line></g></g><g><g><line x1="41.261160714285715" y1="0" x2="41.261160714285715" y2="177" fill="rgb(0, 0, 0)" stroke="rgb(153, 153, 153)" stroke-width="1.5px"></line></g></g><g><g><g><g><g><path stroke="rgb(255, 112, 67)" stroke-width="2px" d="M42.87859821428572,201.2333843884749L43.695569196428565,167.81467433185566L44.677584821428574,127.13938431803315L45.82464508928572,101.81313599731332L47.136750000000006,85.22103499023463L48.61389955357143,68.93756458661937L50.25609375,58.945479135837516L52.063332589285714,59.95270252255471L54.03561607142857,51.03260656686556L56.172944196428574,45.23928004639088L58.47531696428572,44.120528302479805L60.942734375,41.26817152487135L63.575196428571424,39.11853561474867L66.372703125,39.10376016424574L69.33525446428571,37.70707079380424L72.46285044642856,36.20358567440556L75.75549107142857,34.06959511108281L79.21317633928572,32.63348642706225L82.83590625,32.81969214646424L86.62368080357142,31.23220491165658L90.5765,30.747005401351583L94.69436383928571,30.95148641492975L98.97727232142856,30.040488134316693L103.42522544642857,29.423096569984757L108.03822321428572,29.845619065717273L112.816265625,32.16649186244224L117.75935267857142,30.3022099519033L117.91614508928572,30.528847729719857L118.23798214285713,29.631145541484475L118.7248638392857,28.55444813773408L119.37679017857143,28.404027581944018L120.19376116071429,28.058894814717735L121.17577678571429,27.837652133130675L122.32283705357143,27.251786954963567L123.63494196428572,27.5091482847736L125.11209151785715,27.42284767428523L126.75428571428571,27.399393357957702L128.56152455357145,26.960516446551562L130.5338080357143,26.244070731843987L132.6711361607143,25.785877253427234L134.97350892857145,26.360569809187165L137.4409263392857,26.677059292771812L140.07338839285714,26.07399643988332L142.8708950892857,26.745832678408245L145.83344642857145,27.148934421507082L148.9610424107143,26.484556331606218L152.2536830357143,25.986809909799494L155.71136830357145,25.94304248884828L159.33409821428572,25.633586357565928L163.12187276785716,25.263836567956865L167.07469196428573,25.863258483743532L171.19255580357145,25.529074658117022L175.47546428571428,25.20112954828802L179.92341741071428,25.16011254342596L184.53641517857145,25.631110983086884L189.31445758928572,25.41810140430525L194.25754464285714,25.120382571098727L194.41433705357142,25.479827382014715L194.73617410714286,25.48309210791973L195.2230558035714,25.06025742539636L195.87498214285714,24.976469701819816L196.69195312500003,24.770447006638744L197.67396875,24.60434431482311L198.82102901785714,25.297650045925117L200.13313392857143,25.005633484586323L201.61028348214285,24.632184412040868L203.25247767857144,24.36562589380656L205.05971651785714,24.63049510415498L207.032,24.619492741203917L209.169328125,24.442978237495776L211.47170089285714,24.308743485466252L213.93911830357143,24.412289548311005L216.57158035714284,24.502732432599878L219.36908705357143,24.50035686678647L222.33163839285714,24.300692391556247L225.459234375,23.95433932409392L228.751875,23.98724489084304L232.20956026785714,23.8937056381191L235.83229017857144,23.96502770416053L239.62006473214285,23.880375326109604L243.57288392857143,23.617181738634553L247.69074776785715,24.138950339567455L251.97365624999998,24.211294092900637L256.421609375,23.815732998709148L261.0346071428571,23.3943202313544L265.8126495535714,23.665396460101697L270.75573660714286,25.11659657967434" style="fill: none;" fill="none"></path></g></g></g></g><g opacity="0.2"><g><g><g><path stroke="rgb(255, 112, 67)" stroke-width="2px" d="M42.226671875,183.1241983795166L42.87859821428572,173.10600540161133L43.695569196428565,124.18320648193358L44.677584821428574,70.87081512451172L45.82464508928572,65.59619567871094L47.136750000000006,61.029592437744135L48.61389955357143,44.922608642578126L50.25609375,44.108396759033205L52.063332589285714,61.45440216064453L54.03561607142857,37.701005401611326L56.172944196428574,36.568206481933586L58.47531696428572,42.444592437744134L60.942734375,36.99298919677734L63.575196428571424,35.89559783935546L66.372703125,39.08160324096679L69.33525446428571,35.61239135742186L72.46285044642856,33.94858703613282L75.75549107142857,30.868804321289073L79.21317633928572,30.47940216064454L82.83590625,33.09899459838868L86.62368080357142,28.851005401611335L90.5765,30.01921188354493L94.69436383928571,31.258206481933602L98.97727232142856,28.673994598388678L103.42522544642857,28.497010803222665L108.03822321428572,30.47940216064454L112.816265625,35.647798919677726L117.75935267857142,27.50578811645508L117.91614508928572,30.868804321289073L118.23798214285713,28.284592437744145L118.7248638392857,26.939402160644537L119.37679017857143,28.17839675903321L120.19376116071429,27.54119567871094L121.17577678571429,27.50578811645508L122.32283705357143,26.372989196777347L123.63494196428572,27.895190277099612L125.11209151785715,27.293396759033207L126.75428571428571,27.36421188354493L128.56152455357145,26.30220108032227L130.5338080357143,25.169402160644534L132.6711361607143,25.098587036132812L134.97350892857145,27.22260864257813L137.4409263392857,27.15179351806641L140.07338839285714,25.169402160644534L142.8708950892857,27.753587036132814L145.83344642857145,27.753587036132814L148.9610424107143,25.487989196777345L152.2536830357143,25.24019027709961L155.71136830357145,25.877391357421878L159.33409821428572,25.169402160644534L163.12187276785716,24.709211883544928L167.07469196428573,26.762391357421876L171.19255580357145,25.027798919677736L175.47546428571428,24.709211883544928L179.92341741071428,25.098587036132812L184.53641517857145,26.33760864257813L189.31445758928572,25.098587036132812L194.25754464285714,24.673804321289065L194.41433705357142,26.018994598388673L194.73617410714286,25.487989196777345L195.2230558035714,24.42600540161133L195.87498214285714,24.850788116455078L196.69195312500003,24.461412963867193L197.67396875,24.35519027709961L198.82102901785714,26.33760864257813L200.13313392857143,24.56760864257813L201.61028348214285,24.07201080322266L203.25247767857144,23.965788116455077L205.05971651785714,25.027798919677736L207.032,24.602989196777344L209.169328125,24.178206481933596L211.47170089285714,24.107391357421875L213.93911830357143,24.56760864257813L216.57158035714284,24.638396759033206L219.36908705357143,24.496793518066408L222.33163839285714,24.00119567871094L225.459234375,23.434809722900393L228.751875,24.036603240966798L232.20956026785714,23.753396759033205L235.83229017857144,24.07201080322266L239.62006473214285,23.753396759033205L243.57288392857143,23.222391357421873L247.69074776785715,24.9216032409668L251.97365624999998,24.319809722900395L256.421609375,23.222391357421873L261.0346071428571,22.762201080322267L265.8126495535714,24.07201080322266L270.75573660714286,27.293396759033207" style="fill: none;" fill="none"></path></g></g></g></g></g></g><g transform="translate(41, 177)" clip-path="url(#clip_1)"><clipPath id="clip_1"><rect width="288" height="23"></rect></clipPath><g><g><line x1="0" y1="0" x2="0" y2="5" style="visibility: inherit;" fill="rgb(0, 0, 0)" stroke="rgb(204, 204, 204)" stroke-width="1px"></line><line x1="41.261160714285715" y1="0" x2="41.261160714285715" y2="5" style="visibility: inherit;" fill="rgb(0, 0, 0)" stroke="rgb(204, 204, 204)" stroke-width="1px"></line><line x1="82.52232142857143" y1="0" x2="82.52232142857143" y2="5" style="visibility: inherit;" fill="rgb(0, 0, 0)" stroke="rgb(204, 204, 204)" stroke-width="1px"></line><line x1="123.78348214285714" y1="0" x2="123.78348214285714" y2="5" style="visibility: inherit;" fill="rgb(0, 0, 0)" stroke="rgb(204, 204, 204)" stroke-width="1px"></line><line x1="165.04464285714286" y1="0" x2="165.04464285714286" y2="5" style="visibility: inherit;" fill="rgb(0, 0, 0)" stroke="rgb(204, 204, 204)" stroke-width="1px"></line><line x1="206.30580357142858" y1="0" x2="206.30580357142858" y2="5" style="visibility: inherit;" fill="rgb(0, 0, 0)" stroke="rgb(204, 204, 204)" stroke-width="1px"></line><line x1="247.56696428571428" y1="0" x2="247.56696428571428" y2="5" style="visibility: inherit;" fill="rgb(0, 0, 0)" stroke="rgb(204, 204, 204)" stroke-width="1px"></line><line x1="288.828125" y1="0" x2="288.828125" y2="5" style="visibility: inherit;" fill="rgb(0, 0, 0)" stroke="rgb(204, 204, 204)" stroke-width="1px"></line></g><g transform="translate(0, 8)"><text x="0" y="0" dx="0em" dy="0.95em" style="text-anchor: middle; visibility: hidden; font-family: Roboto, sans-serif; font-size: 12px; font-weight: 200;" fill="rgb(255, 255, 255)" stroke="none" stroke-width="1px">-5k</text><text x="41.261160714285715" y="0" dx="0em" dy="0.95em" style="text-anchor: middle; visibility: inherit; font-family: Roboto, sans-serif; font-size: 12px; font-weight: 200;" fill="rgb(255, 255, 255)" stroke="none" stroke-width="1px">0</text><text x="82.52232142857143" y="0" dx="0em" dy="0.95em" style="text-anchor: middle; visibility: inherit; font-family: Roboto, sans-serif; font-size: 12px; font-weight: 200;" fill="rgb(255, 255, 255)" stroke="none" stroke-width="1px">5k</text><text x="123.78348214285714" y="0" dx="0em" dy="0.95em" style="text-anchor: middle; visibility: inherit; font-family: Roboto, sans-serif; font-size: 12px; font-weight: 200;" fill="rgb(255, 255, 255)" stroke="none" stroke-width="1px">10k</text><text x="165.04464285714286" y="0" dx="0em" dy="0.95em" style="text-anchor: middle; visibility: inherit; font-family: Roboto, sans-serif; font-size: 12px; font-weight: 200;" fill="rgb(255, 255, 255)" stroke="none" stroke-width="1px">15k</text><text x="206.30580357142858" y="0" dx="0em" dy="0.95em" style="text-anchor: middle; visibility: inherit; font-family: Roboto, sans-serif; font-size: 12px; font-weight: 200;" fill="rgb(255, 255, 255)" stroke="none" stroke-width="1px">20k</text><text x="247.56696428571428" y="0" dx="0em" dy="0.95em" style="text-anchor: middle; visibility: inherit; font-family: Roboto, sans-serif; font-size: 12px; font-weight: 200;" fill="rgb(255, 255, 255)" stroke="none" stroke-width="1px">25k</text><text x="288.828125" y="0" dx="0em" dy="0.95em" style="text-anchor: middle; visibility: hidden; font-family: Roboto, sans-serif; font-size: 12px; font-weight: 200;" fill="rgb(255, 255, 255)" stroke="none" stroke-width="1px">30k</text></g><line x1="0" y1="0" x2="288.828125" y2="0" fill="rgb(0, 0, 0)" stroke="rgb(204, 204, 204)" stroke-width="1px"></line></g></g></g></g></svg>